<svg width="3840" height="449" viewBox="0 0 3840 449" fill="none" xmlns="http://www.w3.org/2000/svg">
<g clip-path="url(#clip0_892_30279)">
<g filter="url(#filter0_f_892_30279)">
<ellipse rx="1823.37" ry="560.322" transform="matrix(0.996893 -0.0787641 0.300127 0.953899 3755.88 544.166)" fill="#0076FF" fill-opacity="0.6"/>
<path d="M5573.08 400.589C5596.23 474.161 5567.6 548.348 5495.78 619.521C5423.97 690.686 5309.04 758.765 5159.81 820.112C4861.36 942.803 4425.8 1038.52 3923.89 1078.18C3421.98 1117.84 2948.79 1093.91 2589.48 1023.19C2409.82 987.831 2258.67 940.775 2146.64 884.135C2034.6 827.488 1961.81 761.314 1938.67 687.743C1915.52 614.171 1944.15 539.984 2015.97 468.811C2087.78 397.646 2202.71 329.567 2351.94 268.22C2650.39 145.529 3085.95 49.8075 3587.86 10.1518C4089.77 -29.5039 4562.96 -5.58252 4922.27 65.1392C5101.93 100.501 5253.08 147.557 5365.11 204.197C5477.15 260.844 5549.94 327.017 5573.08 400.589Z" stroke="#737373"/>
</g>
<g filter="url(#filter1_f_892_30279)">
<ellipse cx="4162" cy="387.836" rx="562" ry="388.365" fill="#1AC7FF" fill-opacity="0.6"/>
<path d="M4723.5 387.836C4723.5 494.869 4660.72 591.823 4559.11 662.04C4457.5 732.255 4317.1 775.701 4162 775.701C4006.9 775.701 3866.5 732.255 3764.89 662.04C3663.28 591.823 3600.5 494.869 3600.5 387.836C3600.5 280.803 3663.28 183.848 3764.89 113.632C3866.5 43.4159 4006.9 -0.0292969 4162 -0.0292969C4317.1 -0.0292969 4457.5 43.4159 4559.11 113.632C4660.72 183.848 4723.5 280.803 4723.5 387.836Z" stroke="#737373"/>
</g>
<g filter="url(#filter2_f_892_30279)">
<ellipse rx="657.875" ry="482.995" transform="matrix(0.99226 -0.124179 0.446042 0.895012 4230.22 -147.019)" fill="#1AC7FF" fill-opacity="0.4"/>
<path d="M4882.51 -228.652C4941.91 -109.456 4922.75 7.62393 4843.67 100.563C4764.59 193.501 4625.6 262.272 4445.43 284.819C4265.27 307.367 4078.07 279.417 3921.08 216.022C3764.09 152.628 3637.34 53.8089 3577.93 -65.3871C3518.53 -184.583 3537.69 -301.663 3616.77 -394.601C3695.85 -487.54 3834.84 -556.311 4015.01 -578.858C4195.17 -601.406 4382.36 -573.455 4539.36 -510.061C4696.35 -446.667 4823.1 -347.848 4882.51 -228.652Z" stroke="#737373"/>
</g>
<g filter="url(#filter3_f_892_30279)">
<ellipse cx="-776" cy="477.535" rx="2502" ry="658.466" fill="#0076FF" fill-opacity="0.3"/>
<path d="M1725.5 477.535C1725.5 568.177 1655.69 654.658 1529.12 733.415C1402.57 812.156 1219.42 883.084 993.054 942.657C540.333 1061.8 -85.1218 1135.5 -776 1135.5C-1466.88 1135.5 -2092.33 1061.8 -2545.05 942.657C-2771.42 883.084 -2954.57 812.156 -3081.12 733.415C-3207.69 654.658 -3277.5 568.177 -3277.5 477.535C-3277.5 386.893 -3207.69 300.411 -3081.12 221.655C-2954.57 142.914 -2771.42 71.9859 -2545.05 12.4123C-2092.33 -106.733 -1466.88 -180.432 -776 -180.432C-85.1218 -180.432 540.333 -106.733 993.054 12.4123C1219.42 71.9859 1402.57 142.914 1529.12 221.655C1655.69 300.411 1725.5 386.893 1725.5 477.535Z" stroke="#737373"/>
</g>
<g filter="url(#filter4_f_892_30279)">
<ellipse rx="1717.96" ry="465.896" transform="matrix(0.997223 0.0744771 -0.285069 0.958507 2798 849.271)" fill="#FF0075" fill-opacity="0.6"/>
<path d="M4510.69 977.183C4492.43 1038.59 4427.25 1093.63 4324.71 1140.56C4222.2 1187.48 4082.51 1226.22 3915.5 1255.04C3581.5 1312.69 3138.38 1330.69 2665.33 1295.36C2192.28 1260.03 1778.89 1178.06 1492.95 1074.11C1349.97 1022.14 1238.89 964.676 1168.14 904.818C1097.36 844.943 1067.05 782.763 1085.31 721.36C1103.57 659.957 1168.75 604.909 1271.29 557.978C1373.8 511.059 1513.49 472.326 1680.5 443.501C2014.5 385.853 2457.62 367.856 2930.67 403.186C3403.72 438.515 3817.11 520.48 4103.05 624.428C4246.03 676.404 4357.11 733.866 4427.87 793.725C4498.64 853.6 4528.95 915.78 4510.69 977.183Z" stroke="#737373"/>
</g>
<g filter="url(#filter5_f_892_30279)">
<ellipse cx="391" cy="808.272" rx="1249" ry="464.033" fill="#06D6A0"/>
<path d="M1639.5 808.272C1639.5 872.145 1604.66 933.057 1541.52 988.519C1478.38 1043.98 1386.98 1093.95 1274 1135.92C1048.05 1219.87 735.858 1271.81 391 1271.81C46.1419 1271.81 -266.046 1219.87 -492.002 1135.92C-604.982 1093.95 -696.377 1043.98 -759.517 988.519C-822.659 933.057 -857.5 872.145 -857.5 808.272C-857.5 744.398 -822.659 683.487 -759.517 628.025C-696.377 572.563 -604.982 522.594 -492.002 480.619C-266.046 396.671 46.1419 344.738 391 344.738C735.858 344.738 1048.05 396.671 1274 480.619C1386.98 522.594 1478.38 572.563 1541.52 628.025C1604.66 683.487 1639.5 744.398 1639.5 808.272Z" stroke="#737373"/>
</g>
</g>
<defs>
<filter id="filter0_f_892_30279" x="1530.28" y="-409.421" width="4451.19" height="1907.17" filterUnits="userSpaceOnUse" color-interpolation-filters="sRGB">
<feFlood flood-opacity="0" result="BackgroundImageFix"/>
<feBlend mode="normal" in="SourceGraphic" in2="BackgroundImageFix" result="shape"/>
<feGaussianBlur stdDeviation="200" result="effect1_foregroundBlur_892_30279"/>
</filter>
<filter id="filter1_f_892_30279" x="3400" y="-200.529" width="1524" height="1176.73" filterUnits="userSpaceOnUse" color-interpolation-filters="sRGB">
<feFlood flood-opacity="0" result="BackgroundImageFix"/>
<feBlend mode="normal" in="SourceGraphic" in2="BackgroundImageFix" result="shape"/>
<feGaussianBlur stdDeviation="100" result="effect1_foregroundBlur_892_30279"/>
</filter>
<filter id="filter2_f_892_30279" x="3342.62" y="-787.037" width="1775.2" height="1280.04" filterUnits="userSpaceOnUse" color-interpolation-filters="sRGB">
<feFlood flood-opacity="0" result="BackgroundImageFix"/>
<feBlend mode="normal" in="SourceGraphic" in2="BackgroundImageFix" result="shape"/>
<feGaussianBlur stdDeviation="100" result="effect1_foregroundBlur_892_30279"/>
</filter>
<filter id="filter3_f_892_30279" x="-3578" y="-480.932" width="5604" height="1916.93" filterUnits="userSpaceOnUse" color-interpolation-filters="sRGB">
<feFlood flood-opacity="0" result="BackgroundImageFix"/>
<feBlend mode="normal" in="SourceGraphic" in2="BackgroundImageFix" result="shape"/>
<feGaussianBlur stdDeviation="150" result="effect1_foregroundBlur_892_30279"/>
</filter>
<filter id="filter4_f_892_30279" x="779.586" y="84.6182" width="4036.83" height="1529.31" filterUnits="userSpaceOnUse" color-interpolation-filters="sRGB">
<feFlood flood-opacity="0" result="BackgroundImageFix"/>
<feBlend mode="normal" in="SourceGraphic" in2="BackgroundImageFix" result="shape"/>
<feGaussianBlur stdDeviation="150" result="effect1_foregroundBlur_892_30279"/>
</filter>
<filter id="filter5_f_892_30279" x="-1158" y="44.2383" width="3098" height="1528.07" filterUnits="userSpaceOnUse" color-interpolation-filters="sRGB">
<feFlood flood-opacity="0" result="BackgroundImageFix"/>
<feBlend mode="normal" in="SourceGraphic" in2="BackgroundImageFix" result="shape"/>
<feGaussianBlur stdDeviation="150" result="effect1_foregroundBlur_892_30279"/>
</filter>
<clipPath id="clip0_892_30279">
<rect width="3840" height="449" fill="white"/>
</clipPath>
</defs>
</svg>
