<svg width="1920" height="449" viewBox="0 0 1920 449" fill="none" xmlns="http://www.w3.org/2000/svg">
<g clip-path="url(#clip0_892_30271)">
<g filter="url(#filter0_f_892_30271)">
<ellipse rx="920.131" ry="541.065" transform="matrix(0.987744 -0.156082 0.155405 0.987851 1877.94 553.166)" fill="#0076FF" fill-opacity="0.6"/>
<path d="M2786.3 409.628C2809.48 556.977 2728.92 706.514 2579.73 829.17C2430.56 951.817 2212.84 1047.52 1961.94 1087.16C1711.04 1126.81 1474.51 1102.89 1294.92 1032.19C1115.32 961.493 992.758 844.053 969.578 696.704C946.397 549.355 1026.96 399.818 1176.14 277.162C1325.32 154.514 1543.03 58.8159 1793.93 19.1688C2044.83 -20.4783 2281.36 3.44056 2460.95 74.137C2640.56 144.838 2763.12 262.279 2786.3 409.628Z" stroke="#737373"/>
</g>
<g filter="url(#filter1_f_892_30271)">
<ellipse cx="2081" cy="396.836" rx="281" ry="388.365" fill="#1AC7FF" fill-opacity="0.6"/>
<path d="M2361.5 396.836C2361.5 503.986 2330.07 600.972 2279.29 671.158C2228.51 741.345 2158.4 784.701 2081 784.701C2003.6 784.701 1933.49 741.345 1882.71 671.158C1831.93 600.972 1800.5 503.986 1800.5 396.836C1800.5 289.685 1831.93 192.699 1882.71 122.513C1933.49 52.3266 2003.6 8.9707 2081 8.9707C2158.4 8.9707 2228.51 52.3266 2279.29 122.513C2330.07 192.699 2361.5 289.685 2361.5 396.836Z" stroke="#737373"/>
</g>
<g filter="url(#filter2_f_892_30271)">
<ellipse rx="336.46" ry="445.505" transform="matrix(0.970075 -0.242806 0.241789 0.970329 2115.11 -138.019)" fill="#1AC7FF" fill-opacity="0.4"/>
<path d="M2441.02 -219.592C2470.74 -100.315 2461.14 16.788 2421.61 109.691C2382.09 202.594 2312.65 271.269 2222.71 293.782C2132.76 316.295 2039.26 288.401 1960.8 225.031C1882.33 161.66 1818.92 62.8305 1789.2 -56.4464C1759.48 -175.723 1769.08 -292.827 1808.61 -385.73C1848.13 -478.633 1917.57 -547.308 2007.51 -569.821C2097.46 -592.333 2190.95 -564.439 2269.42 -501.069C2347.89 -437.699 2411.29 -338.869 2441.02 -219.592Z" stroke="#737373"/>
</g>
<g filter="url(#filter3_f_892_30271)">
<ellipse cx="-388" cy="486.535" rx="1251" ry="658.466" fill="#0076FF" fill-opacity="0.3"/>
<path d="M862.5 486.535C862.5 668.087 722.682 832.572 496.358 951.698C270.057 1070.81 -42.6104 1144.5 -388 1144.5C-733.39 1144.5 -1046.06 1070.81 -1272.36 951.698C-1498.68 832.572 -1638.5 668.087 -1638.5 486.535C-1638.5 304.982 -1498.68 140.497 -1272.36 21.3712C-1046.06 -97.743 -733.39 -171.432 -388 -171.432C-42.6104 -171.432 270.057 -97.743 496.358 21.3712C722.682 140.497 862.5 304.982 862.5 486.535Z" stroke="#737373"/>
</g>
<g filter="url(#filter4_f_892_30271)">
<ellipse rx="866.097" ry="451.475" transform="matrix(0.989028 0.14773 -0.147087 0.989124 1399 858.271)" fill="#FF0075" fill-opacity="0.6"/>
<path d="M2255.1 986.146C2236.8 1109.18 2124.55 1206.41 1957.58 1264.04C1790.64 1321.67 1569.15 1339.66 1332.67 1304.34C1096.19 1269.02 889.553 1187.07 746.634 1083.16C603.694 979.236 524.605 853.435 542.901 730.397C561.197 607.359 673.451 510.138 840.417 452.502C1007.36 394.875 1228.85 376.878 1465.33 412.201C1701.81 447.524 1908.45 529.47 2051.37 633.38C2194.31 737.306 2273.4 863.108 2255.1 986.146Z" stroke="#737373"/>
</g>
<g filter="url(#filter5_f_892_30271)">
<ellipse cx="195.5" cy="817.272" rx="624.5" ry="464.033" fill="#06D6A0"/>
<path d="M819.5 817.272C819.5 945.216 749.708 1061.09 636.79 1144.99C523.872 1228.89 367.854 1280.81 195.5 1280.81C23.1458 1280.81 -132.872 1228.89 -245.79 1144.99C-358.708 1061.09 -428.5 945.216 -428.5 817.272C-428.5 689.327 -358.708 573.455 -245.79 489.552C-132.872 405.649 23.1458 353.738 195.5 353.738C367.854 353.738 523.872 405.649 636.79 489.552C749.708 573.455 819.5 689.327 819.5 817.272Z" stroke="#737373"/>
</g>
</g>
<defs>
<filter id="filter0_f_892_30271" x="565.141" y="-400.421" width="2625.59" height="1907.17" filterUnits="userSpaceOnUse" color-interpolation-filters="sRGB">
<feFlood flood-opacity="0" result="BackgroundImageFix"/>
<feBlend mode="normal" in="SourceGraphic" in2="BackgroundImageFix" result="shape"/>
<feGaussianBlur stdDeviation="200" result="effect1_foregroundBlur_892_30271"/>
</filter>
<filter id="filter1_f_892_30271" x="1600" y="-191.529" width="962" height="1176.73" filterUnits="userSpaceOnUse" color-interpolation-filters="sRGB">
<feFlood flood-opacity="0" result="BackgroundImageFix"/>
<feBlend mode="normal" in="SourceGraphic" in2="BackgroundImageFix" result="shape"/>
<feGaussianBlur stdDeviation="100" result="effect1_foregroundBlur_892_30271"/>
</filter>
<filter id="filter2_f_892_30271" x="1571.31" y="-778.037" width="1087.59" height="1280.04" filterUnits="userSpaceOnUse" color-interpolation-filters="sRGB">
<feFlood flood-opacity="0" result="BackgroundImageFix"/>
<feBlend mode="normal" in="SourceGraphic" in2="BackgroundImageFix" result="shape"/>
<feGaussianBlur stdDeviation="100" result="effect1_foregroundBlur_892_30271"/>
</filter>
<filter id="filter3_f_892_30271" x="-1939" y="-471.932" width="3102" height="1916.93" filterUnits="userSpaceOnUse" color-interpolation-filters="sRGB">
<feFlood flood-opacity="0" result="BackgroundImageFix"/>
<feBlend mode="normal" in="SourceGraphic" in2="BackgroundImageFix" result="shape"/>
<feGaussianBlur stdDeviation="150" result="effect1_foregroundBlur_892_30271"/>
</filter>
<filter id="filter4_f_892_30271" x="239.797" y="93.6182" width="2318.41" height="1529.31" filterUnits="userSpaceOnUse" color-interpolation-filters="sRGB">
<feFlood flood-opacity="0" result="BackgroundImageFix"/>
<feBlend mode="normal" in="SourceGraphic" in2="BackgroundImageFix" result="shape"/>
<feGaussianBlur stdDeviation="150" result="effect1_foregroundBlur_892_30271"/>
</filter>
<filter id="filter5_f_892_30271" x="-729" y="53.2383" width="1849" height="1528.07" filterUnits="userSpaceOnUse" color-interpolation-filters="sRGB">
<feFlood flood-opacity="0" result="BackgroundImageFix"/>
<feBlend mode="normal" in="SourceGraphic" in2="BackgroundImageFix" result="shape"/>
<feGaussianBlur stdDeviation="150" result="effect1_foregroundBlur_892_30271"/>
</filter>
<clipPath id="clip0_892_30271">
<rect width="1920" height="449" fill="white"/>
</clipPath>
</defs>
</svg>
