<svg width="28" height="27" fill="none" xmlns="http://www.w3.org/2000/svg"><rect x="1" y=".5" width="26" height="26" rx="13" fill="#000"/><path d="M20.766 9.302c-.498.221-1.033.37-1.595.437a2.786 2.786 0 0 0 1.221-1.536c-.536.318-1.13.55-1.763.674a2.777 2.777 0 0 0-4.732 2.533 7.884 7.884 0 0 1-5.724-2.902 2.776 2.776 0 0 0 .86 3.708 2.766 2.766 0 0 1-1.259-.347v.034c0 1.346.957 2.468 2.228 2.723a2.78 2.78 0 0 1-1.254.048 2.78 2.78 0 0 0 2.594 1.929 5.572 5.572 0 0 1-4.112 1.15A7.86 7.86 0 0 0 11.488 19c5.108 0 7.9-4.231 7.9-7.901 0-.12-.002-.24-.007-.36a5.646 5.646 0 0 0 1.385-1.437Z" fill="#fff"/><rect x="1" y=".5" width="26" height="26" rx="13" stroke="url(#a)"/><defs><radialGradient id="a" cx="0" cy="0" r="1" gradientUnits="userSpaceOnUse" gradientTransform="rotate(26.565 -28.343 7.809) scale(30.1869 26838.9)"><stop stop-color="#FFBE0B"/><stop offset=".284" stop-color="#FF0075"/><stop offset=".639" stop-color="#0076FF"/><stop offset="1" stop-color="#06D6A0"/></radialGradient></defs></svg>