<svg width="105" height="105" fill="none" xmlns="http://www.w3.org/2000/svg"><rect x="1.262" y=".688" width="102.473" height="102.999" rx="23.5" fill="url(#a)"/><path d="M66.144 72.128c2.768-2.76 4.62-6.21 5.15-9.592.528-3.382-.31-6.419-2.331-8.442l-10.44 10.404 7.62 7.63Z" fill="#06D6A0"/><path d="M38.847 72.187c-2.768-2.76-4.62-6.21-5.15-9.592-.528-3.382.31-6.419 2.331-8.443l10.44 10.405-7.62 7.63Z" fill="#FFBE0B"/><path d="M47.505 42.648a14.724 14.724 0 0 1 .024 20.833L37.09 53.077l10.416-10.429Z" fill="#FF0075"/><path d="M37.093 53.08a14.724 14.724 0 0 1-.025-20.832l10.44 10.404-10.415 10.429Z" fill="#FF0075"/><path d="M57.487 42.59a14.723 14.723 0 0 0-.024 20.833l10.44-10.405L57.486 42.59Z" fill="#0076FF"/><path d="M67.903 53.02a14.723 14.723 0 0 0 .025-20.833l-10.44 10.405L67.903 53.02Z" fill="#0076FF"/><rect x="1.262" y=".688" width="102.473" height="102.999" rx="23.5" stroke="#606060"/><defs><linearGradient id="a" x1=".762" y1=".267" x2="124.938" y2="44.854" gradientUnits="userSpaceOnUse"><stop stop-color="#101010"/><stop offset="1"/></linearGradient></defs></svg>