<svg width="67" height="67" fill="none" xmlns="http://www.w3.org/2000/svg"><circle cx="33.5" cy="33.5" r="32.5" fill="url(#a)" stroke="url(#b)" stroke-linecap="square"/><g clip-path="url(#c)"><path d="M43.986 49.07c2.132-2.128 3.559-4.788 3.966-7.395.407-2.607-.238-4.949-1.795-6.509l-8.04 8.021 5.869 5.883ZM22.964 49.117c-2.132-2.128-3.559-4.788-3.966-7.395-.407-2.608.238-4.949 1.795-6.51l8.04 8.022-5.869 5.883Z" fill="#FFBE0B"/><path d="M21.611 34.339a11.357 11.357 0 0 1-.017-16.06l8.04 8.022a11.357 11.357 0 0 1 .017 16.06l-8.04-8.022Z" fill="#0076FF"/><path d="M45.338 34.339a11.357 11.357 0 0 0 .017-16.06l-8.04 8.022a11.357 11.357 0 0 0-.017 16.06l8.04-8.022Z" fill="#0076FF"/></g><defs><radialGradient id="a" cx="0" cy="0" r="1" gradientUnits="userSpaceOnUse" gradientTransform="matrix(-22.23165 68.46264 -67.00487 -21.75827 55.732 -2.462)"><stop stop-color="#0D0D0D"/><stop offset="1" stop-color="#121212"/></radialGradient><linearGradient id="b" x1="57.981" y1="-5.331" x2="58.674" y2="64.454" gradientUnits="userSpaceOnUse"><stop offset=".545" stop-color="#0076FF"/><stop offset=".551" stop-color="#FFBE0B"/></linearGradient><clipPath id="c"><path fill="#fff" transform="translate(18.277 18.28)" d="M0 0h30.837v30.837H0z"/></clipPath></defs></svg>